<?xml version="1.0" encoding="utf-8"?>
<!-- Generator: Adobe Illustrator 22.0.1, SVG Export Plug-In . SVG Version: 6.00 Build 0)  -->
<svg version="1.1" id="Layer_1" xmlns="http://www.w3.org/2000/svg" xmlns:xlink="http://www.w3.org/1999/xlink" x="0px" y="0px"
	 viewBox="0 0 3840 3840" style="enable-background:new 0 0 3840 3840;" xml:space="preserve">
<style type="text/css">
	.st0{opacity:0.5;fill:#428CC4;stroke:#428CC4;stroke-width:1.51;}
	.st1{opacity:0.5;fill:#468DC5;stroke:#468DC5;stroke-width:1.51;}
	.st2{opacity:0.5;fill:#4384BE;stroke:#4384BE;stroke-width:1.51;}
	.st3{opacity:0.5;fill:#3280BD;stroke:#3280BD;stroke-width:1.51;}
	.st4{opacity:0.5;fill:#3477B5;stroke:#3477B5;stroke-width:1.51;}
	.st5{opacity:0.5;fill:#2873B4;stroke:#2873B4;stroke-width:1.51;}
	.st6{opacity:0.5;fill:#549DCD;stroke:#549DCD;stroke-width:1.51;}
	.st7{opacity:0.5;fill:#5D9DCC;stroke:#5D9DCC;stroke-width:1.51;}
	.st8{opacity:0.5;fill:#689DCC;stroke:#689DCC;stroke-width:1.51;}
	.st9{opacity:0.5;fill:#65A6D1;stroke:#65A6D1;stroke-width:1.51;}
	.st10{opacity:0.5;fill:#3380BD;stroke:#3380BD;stroke-width:1.51;}
	.st11{opacity:0.5;fill:#428EC4;stroke:#428EC4;stroke-width:1.51;}
	.st12{opacity:0.5;fill:#5A8FC3;stroke:#5A8FC3;stroke-width:1.51;}
	.st13{opacity:0.5;fill:#316EAA;stroke:#316EAA;stroke-width:1.51;}
	.st14{opacity:0.5;fill:#5D8ABF;stroke:#5D8ABF;stroke-width:1.51;}
	.st15{opacity:0.5;fill:#2160A0;stroke:#2160A0;stroke-width:1.51;}
	.st16{opacity:0.5;fill:#4C79AE;stroke:#4C79AE;stroke-width:1.51;}
	.st17{opacity:0.5;fill:#569ECD;stroke:#569ECD;stroke-width:1.51;}
	.st18{opacity:0.5;fill:#74B0D6;stroke:#74B0D6;stroke-width:1.51;}
	.st19{opacity:0.5;fill:#83B8DA;stroke:#83B8DA;stroke-width:1.51;}
	.st20{opacity:0.5;fill:#64A7D2;stroke:#64A7D2;stroke-width:1.51;}
	.st21{opacity:0.5;fill:#1D66AC;stroke:#1D66AC;stroke-width:1.51;}
	.st22{opacity:0.5;fill:#2571B3;stroke:#2571B3;stroke-width:1.51;}
	.st23{opacity:0.5;fill:#256CB0;stroke:#256CB0;stroke-width:1.51;}
	.st24{opacity:0.5;fill:#74A3D0;stroke:#74A3D0;stroke-width:1.51;}
	.st25{opacity:0.5;fill:#7899CA;stroke:#7899CA;stroke-width:1.51;}
	.st26{opacity:0.5;fill:#1964AB;stroke:#1964AB;stroke-width:1.51;}
	.st27{opacity:0.5;fill:#3A6DA5;stroke:#3A6DA5;stroke-width:1.51;}
	.st28{opacity:0.5;fill:#5E9ACB;stroke:#5E9ACB;stroke-width:1.51;}
	.st29{opacity:0.5;fill:#73B1D7;stroke:#73B1D7;stroke-width:1.51;}
	.st30{opacity:0.5;fill:#7DACD4;stroke:#7DACD4;stroke-width:1.51;}
	.st31{opacity:0.5;fill:#6F8FC2;stroke:#6F8FC2;stroke-width:1.51;}
	.st32{opacity:0.5;fill:#85AAD5;stroke:#85AAD5;stroke-width:1.51;}
	.st33{opacity:0.5;fill:#5577A6;stroke:#5577A6;stroke-width:1.51;}
	.st34{opacity:0.5;fill:#2F74B3;stroke:#2F74B3;stroke-width:1.51;}
	.st35{opacity:0.5;fill:#104D90;stroke:#104D90;stroke-width:1.51;}
	.st36{opacity:0.5;fill:#7AB5D9;stroke:#7AB5D9;stroke-width:1.51;}
	.st37{opacity:0.5;fill:#8BBFDD;stroke:#8BBFDD;stroke-width:1.51;}
	.st38{opacity:0.5;fill:#1A5494;stroke:#1A5494;stroke-width:1.51;}
	.st39{opacity:0.5;fill:#36669C;stroke:#36669C;stroke-width:1.51;}
	.st40{opacity:0.5;fill:#0E56A0;stroke:#0E56A0;stroke-width:1.51;}
	.st41{opacity:0.5;fill:#3E81BC;stroke:#3E81BC;stroke-width:1.51;}
	.st42{opacity:0.5;fill:#537DAF;stroke:#537DAF;stroke-width:1.51;}
	.st43{opacity:0.5;fill:#0F5096;stroke:#0F5096;stroke-width:1.51;}
	.st44{opacity:0.5;fill:#86B5DA;stroke:#86B5DA;stroke-width:1.51;}
	.st45{opacity:0.5;fill:#205793;stroke:#205793;stroke-width:1.51;}
	.st46{opacity:0.5;fill:#2C6198;stroke:#2C6198;stroke-width:1.51;}
	.st47{opacity:0.5;fill:#91C1DF;stroke:#91C1DF;stroke-width:1.51;}
	.st48{opacity:0.5;fill:#6984B3;stroke:#6984B3;stroke-width:1.51;}
	.st49{opacity:0.5;fill:#7083AF;stroke:#7083AF;stroke-width:1.51;}
	.st50{opacity:0.5;fill:#69A3CF;stroke:#69A3CF;stroke-width:1.51;}
	.st51{opacity:0.5;fill:#79AED5;stroke:#79AED5;stroke-width:1.51;}
	.st52{opacity:0.5;fill:#82B8DA;stroke:#82B8DA;stroke-width:1.51;}
	.st53{opacity:0.5;fill:#0B4588;stroke:#0B4588;stroke-width:1.51;}
	.st54{opacity:0.5;fill:#093E80;stroke:#093E80;stroke-width:1.51;}
	.st55{opacity:0.5;fill:#19599D;stroke:#19599D;stroke-width:1.51;}
	.st56{opacity:0.5;fill:#2E6CA8;stroke:#2E6CA8;stroke-width:1.51;}
	.st57{opacity:0.5;fill:#3B6FA6;stroke:#3B6FA6;stroke-width:1.51;}
	.st58{opacity:0.5;fill:#819ECD;stroke:#819ECD;stroke-width:1.51;}
	.st59{opacity:0.5;fill:#8297C7;stroke:#8297C7;stroke-width:1.51;}
	.st60{opacity:0.5;fill:#788AB6;stroke:#788AB6;stroke-width:1.51;}
	.st61{opacity:0.5;fill:#85B7DA;stroke:#85B7DA;stroke-width:1.51;}
	.st62{opacity:0.5;fill:#215A97;stroke:#215A97;stroke-width:1.51;}
	.st63{opacity:0.5;fill:#5085BD;stroke:#5085BD;stroke-width:1.51;}
	.st64{opacity:0.5;fill:#4875A9;stroke:#4875A9;stroke-width:1.51;}
	.st65{opacity:0.5;fill:#225994;stroke:#225994;stroke-width:1.51;}
	.st66{opacity:0.5;fill:#7987B1;stroke:#7987B1;stroke-width:1.51;}
	.st67{opacity:0.5;fill:#899ECC;stroke:#899ECC;stroke-width:1.51;}
	.st68{opacity:0.5;fill:#0A4184;stroke:#0A4184;stroke-width:1.51;}
	.st69{opacity:0.5;fill:#0B4285;stroke:#0B4285;stroke-width:1.51;}
	.st70{opacity:0.5;fill:#34659B;stroke:#34659B;stroke-width:1.51;}
	.st71{opacity:0.5;fill:#6393C5;stroke:#6393C5;stroke-width:1.51;}
	.st72{opacity:0.5;fill:#7499CA;stroke:#7499CA;stroke-width:1.51;}
	.st73{opacity:0.5;fill:#093674;stroke:#093674;stroke-width:1.51;}
	.st74{opacity:0.5;fill:#093472;stroke:#093472;stroke-width:1.51;}
	.st75{opacity:0.5;fill:#8493BE;stroke:#8493BE;stroke-width:1.51;}
	.st76{opacity:0.5;fill:#80AAD5;stroke:#80AAD5;stroke-width:1.51;}
	.st77{opacity:0.5;fill:#8DB3D9;stroke:#8DB3D9;stroke-width:1.51;}
	.st78{opacity:0.5;fill:#8691B9;stroke:#8691B9;stroke-width:1.51;}
	.st79{opacity:0.5;fill:#7894C6;stroke:#7894C6;stroke-width:1.51;}
	.st80{opacity:0.5;fill:#5F7AA6;stroke:#5F7AA6;stroke-width:1.51;}
	.st81{opacity:0.5;fill:#08306B;stroke:#08306B;stroke-width:1.51;}
	.st82{opacity:0.5;fill:#829ACA;stroke:#829ACA;stroke-width:1.51;}
	.st83{opacity:0.5;fill:#657FAC;stroke:#657FAC;stroke-width:1.51;}
	.st84{opacity:0.5;fill:#5073A2;stroke:#5073A2;stroke-width:1.51;}
	.st85{opacity:0.5;fill:#7389B8;stroke:#7389B8;stroke-width:1.51;}
	.st86{opacity:0.5;fill:#7C8FBC;stroke:#7C8FBC;stroke-width:1.51;}
	.st87{opacity:0.5;fill:#8EAED7;stroke:#8EAED7;stroke-width:1.51;}
	.st88{opacity:0.5;fill:#8DA0CD;stroke:#8DA0CD;stroke-width:1.51;}
	.st89{opacity:0.5;fill:#88A2CF;stroke:#88A2CF;stroke-width:1.51;}
	.st90{opacity:0.5;fill:#838FB7;stroke:#838FB7;stroke-width:1.51;}
	.st91{opacity:0.5;fill:#7B8AB3;stroke:#7B8AB3;stroke-width:1.51;}
	.st92{opacity:0.5;fill:#818BB1;stroke:#818BB1;stroke-width:1.51;}
	.st93{opacity:0.5;fill:#8A97C1;stroke:#8A97C1;stroke-width:1.51;}
</style>
<path class="st0" d="M2830,2294l1034,108l-972-411L2830,2294z"/>
<path class="st1" d="M3864,2402l-280-631l-692,220L3864,2402z"/>
<path class="st2" d="M3864,2402l534-469l-814-162L3864,2402z"/>
<path class="st3" d="M2830,2294l528,599l506-491L2830,2294z"/>
<path class="st4" d="M3864,2402l798,150l-264-619L3864,2402z"/>
<path class="st5" d="M3358,2893l1304-341l-798-150L3358,2893z"/>
<path class="st6" d="M2892,1991l-980-204l918,507L2892,1991z"/>
<path class="st7" d="M3584,1771l-932-319l240,539L3584,1771z"/>
<path class="st8" d="M3902,1271l-1250,181l932,319L3902,1271z"/>
<path class="st9" d="M2652,1452l-740,335l980,204L2652,1452z"/>
<path class="st10" d="M2830,2294l-132,658l660-59L2830,2294z"/>
<path class="st11" d="M1440,2593l1258,359l132-658L1440,2593z"/>
<path class="st12" d="M4398,1933l-496-662l-318,500L4398,1933z"/>
<path class="st13" d="M4662,2552l734-170l-998-449L4662,2552z"/>
<path class="st14" d="M4398,1933l466-525l-962-137L4398,1933z"/>
<path class="st15" d="M4904,2999l492-617l-734,170L4904,2999z"/>
<path class="st16" d="M5642,1927l-778-519l-466,525L5642,1927z"/>
<path class="st17" d="M1912,1787l-472,806l1390-299L1912,1787z"/>
<path class="st18" d="M2652,1452l-986,123l246,212L2652,1452z"/>
<path class="st19" d="M1778,975l-112,600l986-123L1778,975z"/>
<path class="st20" d="M968,2345l472,248l472-806L968,2345z"/>
<path class="st21" d="M3358,2893l1546,106l-242-447L3358,2893z"/>
<path class="st22" d="M2698,2952l952,295l-292-354L2698,2952z"/>
<path class="st23" d="M2906,3495l744-248l-952-295L2906,3495z"/>
<path class="st24" d="M3902,1271l-438-194l-812,375L3902,1271z"/>
<path class="st25" d="M4866,749l-1402,328l438,194L4866,749z"/>
<path class="st26" d="M3650,3247l1254-248l-1546-106L3650,3247z"/>
<path class="st27" d="M5396,2382l246-455l-1244,6L5396,2382z"/>
<path class="st1" d="M1440,2593l192,282l1066,77L1440,2593z"/>
<path class="st28" d="M1440,2593L408,2757l1224,118L1440,2593z"/>
<path class="st29" d="M774,1862l194,483l944-558L774,1862z"/>
<path class="st30" d="M3464,1077l-690-125l-122,500L3464,1077z"/>
<path class="st31" d="M4864,1408l2-659l-964,522L4864,1408z"/>
<path class="st32" d="M3464,1077l344-651L2774,952L3464,1077z"/>
<path class="st33" d="M5642,1927l-156-576l-622,57L5642,1927z"/>
<path class="st34" d="M1954,3395l952,100l-208-543L1954,3395z"/>
<path class="st35" d="M4930,3393l756-409l-782,15L4930,3393z"/>
<path class="st36" d="M1666,1575l-892,287l1138-75L1666,1575z"/>
<path class="st37" d="M802,1395l-28,467l892-287L802,1395z"/>
<path class="st38" d="M4904,2999l782-15l-290-602L4904,2999z"/>
<path class="st39" d="M5396,2382l980-321l-734-134L5396,2382z"/>
<path class="st40" d="M4930,3393l-26-394l-1254,248L4930,3393z"/>
<path class="st41" d="M1632,2875l322,520l744-443L1632,2875z"/>
<path class="st42" d="M916,3810l1038-415L348,3577L916,3810z"/>
<path class="st43" d="M3772,4044l1158-651l-1280-146L3772,4044z"/>
<path class="st44" d="M2774,952l-996,23l874,477L2774,952z"/>
<path class="st45" d="M5686,2984l578-411l-868-191L5686,2984z"/>
<path class="st46" d="M6264,2573l112-512l-980,321L6264,2573z"/>
<path class="st47" d="M1778,975l-976,420l864,180L1778,975z"/>
<path class="st48" d="M5486,1351l-620-602l-2,659L5486,1351z"/>
<path class="st49" d="M5604,766l-738-17l620,602L5604,766z"/>
<path class="st50" d="M968,2345l-560,412l1032-164L968,2345z"/>
<path class="st51" d="M-168,2260l576,497l560-412L-168,2260z"/>
<path class="st52" d="M-102,2058l1070,287l-194-483L-102,2058z"/>
<path class="st53" d="M4930,3393l470,89l286-498L4930,3393z"/>
<path class="st54" d="M4678,4082l722-600l-470-89L4678,4082z"/>
<path class="st55" d="M2906,3495l866,549l-122-797L2906,3495z"/>
<path class="st56" d="M1954,3395l520,362l432-262L1954,3395z"/>
<path class="st57" d="M1288,3830l1186-73l-520-362L1288,3830z"/>
<path class="st58" d="M4866,749L3808,426l-344,651L4866,749z"/>
<path class="st59" d="M4866,749l86-189L3808,426L4866,749z"/>
<path class="st60" d="M5604,766l-652-206l-86,189L5604,766z"/>
<path class="st61" d="M-102,2058l-66,202l1136,85L-102,2058z"/>
<path class="st62" d="M2474,3757l1298,287l-866-549L2474,3757z"/>
<path class="st63" d="M1954,3395l-322-520L348,3577L1954,3395z"/>
<path class="st64" d="M916,3810l372,20l666-435L916,3810z"/>
<path class="st65" d="M2474,3757l138,528l1160-241L2474,3757z"/>
<path class="st66" d="M5604,766l-66-295l-586,89L5604,766z"/>
<path class="st67" d="M4952,560L4330,26l-522,400L4952,560z"/>
<path class="st68" d="M3772,4044l906,38l252-689L3772,4044z"/>
<path class="st69" d="M5400,3482l1356-33l-1070-465L5400,3482z"/>
<path class="st70" d="M1288,3830l1324,455l-138-528L1288,3830z"/>
<path class="st71" d="M348,3577l1284-702L408,2757L348,3577z"/>
<path class="st72" d="M-642,2997l990,580l60-820L-642,2997z"/>
<path class="st73" d="M6646,4017l110-568l-1356,33L6646,4017z"/>
<path class="st74" d="M4678,4082l778-63l-56-537L4678,4082z"/>
<path class="st75" d="M5538,471L4330,26l622,534L5538,471z"/>
<path class="st76" d="M-168,2260l-474,737l1050-240L-168,2260z"/>
<path class="st77" d="M-1672,2546l1030,451l474-737L-1672,2546z"/>
<path class="st78" d="M5538,471l252-582L4330,26L5538,471z"/>
<path class="st79" d="M-642,2997l26,367l964,213L-642,2997z"/>
<path class="st80" d="M-624,3888l1582,512l-42-590L-624,3888z"/>
<path class="st81" d="M5456,4019l1190-2l-1246-535L5456,4019z"/>
<path class="st82" d="M-642,2997l-864,472l890-105L-642,2997z"/>
<path class="st83" d="M-624,3888l1540-78l-568-233L-624,3888z"/>
<path class="st84" d="M916,3810l42,590l330-570L916,3810z"/>
<path class="st85" d="M-616,3364l-8,524l972-311L-616,3364z"/>
<path class="st86" d="M-1506,3469l882,419l8-524L-1506,3469z"/>
<path class="st87" d="M-1672,2546l-10,436l1040,15L-1672,2546z"/>
<path class="st88" d="M-2128,3422l622,47l-176-487L-2128,3422z"/>
<path class="st89" d="M-1682,2982l176,487l864-472L-1682,2982z"/>
<path class="st90" d="M-2312,3799l918,113l-112-443L-2312,3799z"/>
<path class="st91" d="M-1506,3469l112,443l770-24L-1506,3469z"/>
<path class="st92" d="M-2312,3799l710,502l208-389L-2312,3799z"/>
<path class="st93" d="M-2128,3422l-184,377l806-330L-2128,3422z"/>
</svg>
